<svg xmlns="http://www.w3.org/2000/svg" xmlns:xlink="http://www.w3.org/1999/xlink" width="200" zoomAndPan="magnify" viewBox="0 0 150 37.5" height="50" preserveAspectRatio="xMidYMid meet" version="1.0"><defs><g/><clipPath id="15c0a0cad9"><path d="M 4.6875 2.539062 L 36.511719 2.539062 L 36.511719 34.367188 L 4.6875 34.367188 Z M 4.6875 2.539062 " clip-rule="nonzero"/></clipPath><clipPath id="8282838ba8"><path d="M 4.6875 12.640625 C 4.6875 12.226562 4.855469 11.84375 5.121094 11.578125 C 5.398438 11.304688 5.769531 11.132812 6.183594 11.132812 C 6.597656 11.132812 6.980469 11.304688 7.246094 11.578125 C 7.351562 11.683594 7.445312 11.800781 7.507812 11.941406 L 10.894531 11.941406 L 10.894531 11.070312 C 10.894531 10.421875 11.148438 9.851562 11.574219 9.425781 C 11.996094 9 12.570312 8.746094 13.214844 8.746094 L 14.085938 8.746094 L 14.085938 5.363281 C 13.949219 5.300781 13.832031 5.203125 13.726562 5.097656 C 13.449219 4.832031 13.28125 4.449219 13.28125 4.035156 C 13.28125 3.621094 13.449219 3.25 13.726562 2.976562 C 13.992188 2.710938 14.375 2.539062 14.785156 2.539062 C 15.199219 2.539062 15.570312 2.710938 15.835938 2.976562 C 16.113281 3.25 16.28125 3.621094 16.28125 4.035156 C 16.28125 4.449219 16.113281 4.832031 15.835938 5.097656 C 15.730469 5.203125 15.613281 5.300781 15.476562 5.363281 L 15.476562 8.746094 L 19.890625 8.746094 L 19.890625 5.363281 C 19.761719 5.300781 19.636719 5.203125 19.527344 5.097656 C 19.261719 4.832031 19.09375 4.449219 19.09375 4.035156 C 19.09375 3.621094 19.261719 3.25 19.527344 2.976562 C 19.804688 2.710938 20.175781 2.539062 20.589844 2.539062 C 21.003906 2.539062 21.375 2.710938 21.652344 2.976562 C 21.925781 3.25 22.085938 3.621094 22.085938 4.035156 C 22.085938 4.449219 21.925781 4.832031 21.652344 5.097656 C 21.542969 5.203125 21.429688 5.300781 21.289062 5.363281 L 21.289062 8.746094 L 25.703125 8.746094 L 25.703125 5.363281 C 25.566406 5.300781 25.449219 5.203125 25.34375 5.097656 C 25.066406 4.832031 24.90625 4.449219 24.90625 4.035156 C 24.90625 3.621094 25.066406 3.25 25.34375 2.976562 C 25.609375 2.710938 25.988281 2.539062 26.402344 2.539062 C 26.816406 2.539062 27.1875 2.710938 27.464844 2.976562 C 27.730469 3.25 27.898438 3.621094 27.898438 4.035156 C 27.898438 4.449219 27.730469 4.832031 27.464844 5.097656 C 27.359375 5.203125 27.230469 5.300781 27.09375 5.363281 L 27.09375 8.746094 L 27.972656 8.746094 C 28.609375 8.746094 29.191406 9 29.605469 9.425781 C 30.03125 9.851562 30.296875 10.421875 30.296875 11.070312 L 30.296875 11.941406 L 33.671875 11.941406 C 33.746094 11.800781 33.828125 11.683594 33.933594 11.578125 C 34.210938 11.304688 34.582031 11.132812 34.996094 11.132812 C 35.410156 11.132812 35.78125 11.304688 36.058594 11.578125 C 36.332031 11.84375 36.492188 12.226562 36.492188 12.640625 C 36.492188 13.054688 36.332031 13.425781 36.058594 13.691406 C 35.78125 13.964844 35.410156 14.136719 34.996094 14.136719 C 34.582031 14.136719 34.210938 13.964844 33.933594 13.691406 C 33.828125 13.585938 33.746094 13.46875 33.671875 13.328125 L 30.296875 13.328125 L 30.296875 17.742188 L 33.671875 17.742188 C 33.746094 17.617188 33.828125 17.488281 33.933594 17.382812 C 34.210938 17.117188 34.582031 16.949219 34.996094 16.949219 C 35.410156 16.949219 35.78125 17.117188 36.058594 17.382812 C 36.332031 17.65625 36.492188 18.03125 36.492188 18.441406 C 36.492188 18.855469 36.332031 19.226562 36.058594 19.503906 C 35.78125 19.78125 35.410156 19.9375 34.996094 19.9375 C 34.582031 19.9375 34.210938 19.78125 33.933594 19.503906 C 33.828125 19.398438 33.746094 19.28125 33.671875 19.144531 L 30.296875 19.144531 L 30.296875 23.554688 L 33.671875 23.554688 C 33.746094 23.417969 33.828125 23.300781 33.933594 23.195312 C 34.210938 22.921875 34.582031 22.761719 34.996094 22.761719 C 35.410156 22.761719 35.78125 22.921875 36.058594 23.195312 C 36.332031 23.460938 36.492188 23.84375 36.492188 24.257812 C 36.492188 24.671875 36.332031 25.042969 36.058594 25.316406 C 35.78125 25.582031 35.410156 25.753906 34.996094 25.753906 C 34.582031 25.753906 34.210938 25.582031 33.933594 25.316406 C 33.828125 25.210938 33.746094 25.085938 33.671875 24.945312 L 30.296875 24.945312 L 30.296875 25.828125 C 30.296875 26.464844 30.03125 27.046875 29.605469 27.460938 C 29.191406 27.882812 28.609375 28.148438 27.972656 28.148438 L 27.09375 28.148438 L 27.09375 31.523438 C 27.230469 31.597656 27.359375 31.683594 27.464844 31.789062 C 27.730469 32.066406 27.898438 32.4375 27.898438 32.847656 C 27.898438 33.261719 27.730469 33.632812 27.464844 33.910156 C 27.1875 34.1875 26.816406 34.34375 26.402344 34.34375 C 25.988281 34.34375 25.609375 34.1875 25.34375 33.910156 C 25.066406 33.632812 24.90625 33.261719 24.90625 32.847656 C 24.90625 32.4375 25.066406 32.066406 25.34375 31.789062 C 25.449219 31.683594 25.566406 31.597656 25.703125 31.523438 L 25.703125 28.148438 L 21.289062 28.148438 L 21.289062 31.523438 C 21.429688 31.597656 21.542969 31.683594 21.652344 31.789062 C 21.925781 32.066406 22.085938 32.4375 22.085938 32.847656 C 22.085938 33.261719 21.925781 33.632812 21.652344 33.910156 C 21.375 34.1875 21.003906 34.34375 20.589844 34.34375 C 20.175781 34.34375 19.804688 34.1875 19.527344 33.910156 C 19.261719 33.632812 19.09375 33.261719 19.09375 32.847656 C 19.09375 32.4375 19.261719 32.066406 19.527344 31.789062 C 19.636719 31.683594 19.761719 31.597656 19.890625 31.523438 L 19.890625 28.148438 L 15.476562 28.148438 L 15.476562 31.523438 C 15.613281 31.597656 15.730469 31.683594 15.835938 31.789062 C 16.113281 32.066406 16.28125 32.4375 16.28125 32.847656 C 16.28125 33.261719 16.113281 33.632812 15.835938 33.910156 C 15.570312 34.1875 15.199219 34.34375 14.785156 34.34375 C 14.375 34.34375 13.992188 34.1875 13.726562 33.910156 C 13.449219 33.632812 13.28125 33.261719 13.28125 32.847656 C 13.28125 32.4375 13.449219 32.066406 13.726562 31.789062 C 13.832031 31.683594 13.949219 31.597656 14.085938 31.523438 L 14.085938 28.148438 L 13.214844 28.148438 C 12.570312 28.148438 11.996094 27.882812 11.574219 27.460938 C 11.148438 27.046875 10.894531 26.464844 10.894531 25.828125 L 10.894531 24.945312 L 7.507812 24.945312 C 7.445312 25.085938 7.351562 25.210938 7.246094 25.316406 C 6.980469 25.582031 6.597656 25.753906 6.183594 25.753906 C 5.769531 25.753906 5.398438 25.582031 5.121094 25.316406 C 4.855469 25.042969 4.6875 24.671875 4.6875 24.257812 C 4.6875 23.84375 4.855469 23.460938 5.121094 23.195312 C 5.398438 22.917969 5.769531 22.761719 6.183594 22.761719 C 6.597656 22.761719 6.980469 22.917969 7.246094 23.195312 C 7.351562 23.300781 7.445312 23.417969 7.507812 23.554688 L 10.894531 23.554688 L 10.894531 19.144531 L 7.507812 19.144531 C 7.445312 19.28125 7.351562 19.398438 7.246094 19.503906 C 6.980469 19.78125 6.597656 19.9375 6.183594 19.9375 C 5.769531 19.9375 5.398438 19.78125 5.121094 19.503906 C 4.855469 19.226562 4.6875 18.855469 4.6875 18.441406 C 4.6875 18.03125 4.855469 17.65625 5.121094 17.382812 C 5.398438 17.117188 5.769531 16.949219 6.183594 16.949219 C 6.597656 16.949219 6.980469 17.117188 7.246094 17.382812 C 7.351562 17.488281 7.445312 17.617188 7.507812 17.742188 L 10.894531 17.742188 L 10.894531 13.328125 L 7.507812 13.328125 C 7.445312 13.46875 7.351562 13.585938 7.246094 13.691406 C 6.980469 13.964844 6.597656 14.136719 6.183594 14.136719 C 5.769531 14.136719 5.398438 13.964844 5.121094 13.691406 C 4.855469 13.425781 4.6875 13.054688 4.6875 12.640625 Z M 15.835938 11.941406 L 25.351562 11.941406 C 25.832031 11.941406 26.265625 12.132812 26.582031 12.449219 C 26.902344 12.765625 27.09375 13.203125 27.09375 13.691406 L 27.09375 23.207031 C 27.09375 23.683594 26.902344 24.117188 26.582031 24.4375 C 26.265625 24.753906 25.832031 24.945312 25.351562 24.945312 L 15.835938 24.945312 C 15.347656 24.945312 14.914062 24.753906 14.597656 24.4375 C 14.277344 24.117188 14.085938 23.683594 14.085938 23.207031 L 14.085938 13.691406 C 14.085938 13.203125 14.277344 12.765625 14.597656 12.449219 C 14.914062 12.132812 15.347656 11.941406 15.835938 11.941406 Z M 25.351562 13.328125 L 15.835938 13.328125 C 15.730469 13.328125 15.644531 13.371094 15.582031 13.4375 C 15.519531 13.5 15.476562 13.585938 15.476562 13.691406 L 15.476562 23.207031 C 15.476562 23.300781 15.519531 23.386719 15.582031 23.449219 C 15.644531 23.515625 15.730469 23.554688 15.835938 23.554688 L 25.351562 23.554688 C 25.449219 23.554688 25.535156 23.515625 25.597656 23.449219 C 25.660156 23.386719 25.703125 23.300781 25.703125 23.207031 L 25.703125 21 L 23.699219 21 L 23.699219 19.609375 L 25.703125 19.609375 L 25.703125 17.285156 L 21.003906 17.285156 L 21.003906 15.886719 L 25.703125 15.886719 L 25.703125 13.691406 C 25.703125 13.585938 25.660156 13.5 25.597656 13.4375 C 25.535156 13.371094 25.449219 13.328125 25.351562 13.328125 Z M 27.972656 10.136719 L 13.214844 10.136719 C 12.960938 10.136719 12.730469 10.242188 12.558594 10.414062 C 12.390625 10.582031 12.285156 10.816406 12.285156 11.070312 L 12.285156 25.828125 C 12.285156 26.082031 12.390625 26.304688 12.558594 26.472656 C 12.730469 26.644531 12.960938 26.75 13.214844 26.75 L 27.972656 26.75 C 28.226562 26.75 28.449219 26.644531 28.621094 26.472656 C 28.789062 26.304688 28.894531 26.082031 28.894531 25.828125 L 28.894531 11.070312 C 28.894531 10.816406 28.789062 10.582031 28.621094 10.414062 C 28.449219 10.242188 28.226562 10.136719 27.972656 10.136719 Z M 27.972656 10.136719 " clip-rule="evenodd"/></clipPath><linearGradient x1="-2.796823" gradientTransform="matrix(1.060855, 0, 0, 1.060855, 4.6875, 2.540894)" y1="9.07948" x2="33.019622" gradientUnits="userSpaceOnUse" y2="20.1123" id="493ef5d1af"><stop stop-opacity="1" stop-color="rgb(4.875183%, 28.727722%, 74.636841%)" offset="0"/><stop stop-opacity="1" stop-color="rgb(4.908752%, 28.971863%, 74.705505%)" offset="0.00390625"/><stop stop-opacity="1" stop-color="rgb(4.942322%, 29.217529%, 74.77417%)" offset="0.0078125"/><stop stop-opacity="1" stop-color="rgb(4.975891%, 29.463196%, 74.842834%)" offset="0.0117188"/><stop stop-opacity="1" stop-color="rgb(5.00946%, 29.708862%, 74.911499%)" offset="0.015625"/><stop stop-opacity="1" stop-color="rgb(5.04303%, 29.954529%, 74.980164%)" offset="0.0195312"/><stop stop-opacity="1" stop-color="rgb(5.078125%, 30.200195%, 75.048828%)" offset="0.0234375"/><stop stop-opacity="1" stop-color="rgb(5.111694%, 30.444336%, 75.117493%)" offset="0.0273438"/><stop stop-opacity="1" stop-color="rgb(5.145264%, 30.690002%, 75.186157%)" offset="0.03125"/><stop stop-opacity="1" stop-color="rgb(5.178833%, 30.935669%, 75.254822%)" offset="0.0351563"/><stop stop-opacity="1" stop-color="rgb(5.212402%, 31.181335%, 75.323486%)" offset="0.0390625"/><stop stop-opacity="1" stop-color="rgb(5.245972%, 31.427002%, 75.392151%)" offset="0.0429687"/><stop stop-opacity="1" stop-color="rgb(5.279541%, 31.672668%, 75.462341%)" offset="0.046875"/><stop stop-opacity="1" stop-color="rgb(5.31311%, 31.916809%, 75.531006%)" offset="0.0507812"/><stop stop-opacity="1" stop-color="rgb(5.34668%, 32.162476%, 75.59967%)" offset="0.0546875"/><stop stop-opacity="1" stop-color="rgb(5.380249%, 32.408142%, 75.668335%)" offset="0.0585938"/><stop stop-opacity="1" stop-color="rgb(5.415344%, 32.653809%, 75.737%)" offset="0.0625"/><stop stop-opacity="1" stop-color="rgb(5.448914%, 32.899475%, 75.805664%)" offset="0.0664063"/><stop stop-opacity="1" stop-color="rgb(5.482483%, 33.145142%, 75.874329%)" offset="0.0703125"/><stop stop-opacity="1" stop-color="rgb(5.516052%, 33.389282%, 75.942993%)" offset="0.0742188"/><stop stop-opacity="1" stop-color="rgb(5.549622%, 33.634949%, 76.011658%)" offset="0.078125"/><stop stop-opacity="1" stop-color="rgb(5.583191%, 33.880615%, 76.080322%)" offset="0.0820313"/><stop stop-opacity="1" stop-color="rgb(5.61676%, 34.126282%, 76.148987%)" offset="0.0859375"/><stop stop-opacity="1" stop-color="rgb(5.65033%, 34.371948%, 76.217651%)" offset="0.0898438"/><stop stop-opacity="1" stop-color="rgb(5.685425%, 34.617615%, 76.287842%)" offset="0.09375"/><stop stop-opacity="1" stop-color="rgb(5.718994%, 34.861755%, 76.356506%)" offset="0.0976562"/><stop stop-opacity="1" stop-color="rgb(5.752563%, 35.107422%, 76.425171%)" offset="0.101562"/><stop stop-opacity="1" stop-color="rgb(5.786133%, 35.353088%, 76.493835%)" offset="0.105469"/><stop stop-opacity="1" stop-color="rgb(5.819702%, 35.598755%, 76.5625%)" offset="0.109375"/><stop stop-opacity="1" stop-color="rgb(5.853271%, 35.844421%, 76.631165%)" offset="0.113281"/><stop stop-opacity="1" stop-color="rgb(5.886841%, 36.090088%, 76.699829%)" offset="0.117188"/><stop stop-opacity="1" stop-color="rgb(5.92041%, 36.334229%, 76.768494%)" offset="0.121094"/><stop stop-opacity="1" stop-color="rgb(5.953979%, 36.579895%, 76.837158%)" offset="0.125"/><stop stop-opacity="1" stop-color="rgb(5.987549%, 36.825562%, 76.905823%)" offset="0.128906"/><stop stop-opacity="1" stop-color="rgb(6.022644%, 37.071228%, 76.974487%)" offset="0.132813"/><stop stop-opacity="1" stop-color="rgb(6.056213%, 37.316895%, 77.043152%)" offset="0.136719"/><stop stop-opacity="1" stop-color="rgb(6.089783%, 37.562561%, 77.113342%)" offset="0.140625"/><stop stop-opacity="1" stop-color="rgb(6.123352%, 37.806702%, 77.182007%)" offset="0.144531"/><stop stop-opacity="1" stop-color="rgb(6.156921%, 38.052368%, 77.250671%)" offset="0.148438"/><stop stop-opacity="1" stop-color="rgb(6.190491%, 38.298035%, 77.319336%)" offset="0.152344"/><stop stop-opacity="1" stop-color="rgb(6.22406%, 38.543701%, 77.388%)" offset="0.15625"/><stop stop-opacity="1" stop-color="rgb(6.257629%, 38.789368%, 77.456665%)" offset="0.160156"/><stop stop-opacity="1" stop-color="rgb(6.292725%, 39.035034%, 77.52533%)" offset="0.164063"/><stop stop-opacity="1" stop-color="rgb(6.326294%, 39.279175%, 77.593994%)" offset="0.167969"/><stop stop-opacity="1" stop-color="rgb(6.359863%, 39.524841%, 77.662659%)" offset="0.171875"/><stop stop-opacity="1" stop-color="rgb(6.393433%, 39.770508%, 77.731323%)" offset="0.175781"/><stop stop-opacity="1" stop-color="rgb(6.427002%, 40.016174%, 77.801514%)" offset="0.179688"/><stop stop-opacity="1" stop-color="rgb(6.460571%, 40.261841%, 77.870178%)" offset="0.183594"/><stop stop-opacity="1" stop-color="rgb(6.494141%, 40.507507%, 77.938843%)" offset="0.1875"/><stop stop-opacity="1" stop-color="rgb(6.52771%, 40.751648%, 78.007507%)" offset="0.191406"/><stop stop-opacity="1" stop-color="rgb(6.561279%, 40.997314%, 78.076172%)" offset="0.195313"/><stop stop-opacity="1" stop-color="rgb(6.594849%, 41.242981%, 78.144836%)" offset="0.199219"/><stop stop-opacity="1" stop-color="rgb(6.629944%, 41.488647%, 78.213501%)" offset="0.203125"/><stop stop-opacity="1" stop-color="rgb(6.663513%, 41.734314%, 78.282166%)" offset="0.207031"/><stop stop-opacity="1" stop-color="rgb(6.697083%, 41.97998%, 78.35083%)" offset="0.210938"/><stop stop-opacity="1" stop-color="rgb(6.730652%, 42.224121%, 78.419495%)" offset="0.214844"/><stop stop-opacity="1" stop-color="rgb(6.764221%, 42.469788%, 78.488159%)" offset="0.21875"/><stop stop-opacity="1" stop-color="rgb(6.797791%, 42.715454%, 78.556824%)" offset="0.222656"/><stop stop-opacity="1" stop-color="rgb(6.83136%, 42.961121%, 78.627014%)" offset="0.226563"/><stop stop-opacity="1" stop-color="rgb(6.864929%, 43.206787%, 78.695679%)" offset="0.230469"/><stop stop-opacity="1" stop-color="rgb(6.898499%, 43.452454%, 78.764343%)" offset="0.234375"/><stop stop-opacity="1" stop-color="rgb(6.932068%, 43.69812%, 78.833008%)" offset="0.238281"/><stop stop-opacity="1" stop-color="rgb(6.967163%, 43.943787%, 78.901672%)" offset="0.242188"/><stop stop-opacity="1" stop-color="rgb(7.000732%, 44.187927%, 78.970337%)" offset="0.246094"/><stop stop-opacity="1" stop-color="rgb(7.034302%, 44.433594%, 79.039001%)" offset="0.25"/><stop stop-opacity="1" stop-color="rgb(7.067871%, 44.67926%, 79.107666%)" offset="0.253906"/><stop stop-opacity="1" stop-color="rgb(7.10144%, 44.924927%, 79.176331%)" offset="0.257812"/><stop stop-opacity="1" stop-color="rgb(7.13501%, 45.170593%, 79.244995%)" offset="0.261719"/><stop stop-opacity="1" stop-color="rgb(7.168579%, 45.41626%, 79.31366%)" offset="0.265625"/><stop stop-opacity="1" stop-color="rgb(7.202148%, 45.6604%, 79.382324%)" offset="0.269531"/><stop stop-opacity="1" stop-color="rgb(7.237244%, 45.906067%, 79.452515%)" offset="0.273438"/><stop stop-opacity="1" stop-color="rgb(7.270813%, 46.151733%, 79.521179%)" offset="0.277344"/><stop stop-opacity="1" stop-color="rgb(7.304382%, 46.3974%, 79.589844%)" offset="0.28125"/><stop stop-opacity="1" stop-color="rgb(7.337952%, 46.643066%, 79.658508%)" offset="0.285156"/><stop stop-opacity="1" stop-color="rgb(7.371521%, 46.888733%, 79.727173%)" offset="0.289063"/><stop stop-opacity="1" stop-color="rgb(7.40509%, 47.132874%, 79.795837%)" offset="0.292969"/><stop stop-opacity="1" stop-color="rgb(7.43866%, 47.37854%, 79.864502%)" offset="0.296875"/><stop stop-opacity="1" stop-color="rgb(7.472229%, 47.624207%, 79.933167%)" offset="0.300781"/><stop stop-opacity="1" stop-color="rgb(7.505798%, 47.869873%, 80.001831%)" offset="0.304688"/><stop stop-opacity="1" stop-color="rgb(7.539368%, 48.11554%, 80.070496%)" offset="0.308594"/><stop stop-opacity="1" stop-color="rgb(7.574463%, 48.361206%, 80.13916%)" offset="0.3125"/><stop stop-opacity="1" stop-color="rgb(7.608032%, 48.605347%, 80.207825%)" offset="0.316406"/><stop stop-opacity="1" stop-color="rgb(7.641602%, 48.851013%, 80.278015%)" offset="0.320312"/><stop stop-opacity="1" stop-color="rgb(7.675171%, 49.09668%, 80.34668%)" offset="0.324219"/><stop stop-opacity="1" stop-color="rgb(7.70874%, 49.342346%, 80.415344%)" offset="0.328125"/><stop stop-opacity="1" stop-color="rgb(7.74231%, 49.588013%, 80.484009%)" offset="0.332031"/><stop stop-opacity="1" stop-color="rgb(7.775879%, 49.833679%, 80.552673%)" offset="0.335937"/><stop stop-opacity="1" stop-color="rgb(7.809448%, 50.07782%, 80.621338%)" offset="0.339844"/><stop stop-opacity="1" stop-color="rgb(7.844543%, 50.323486%, 80.690002%)" offset="0.34375"/><stop stop-opacity="1" stop-color="rgb(7.878113%, 50.569153%, 80.758667%)" offset="0.347656"/><stop stop-opacity="1" stop-color="rgb(7.911682%, 50.814819%, 80.827332%)" offset="0.351562"/><stop stop-opacity="1" stop-color="rgb(7.945251%, 51.060486%, 80.895996%)" offset="0.355469"/><stop stop-opacity="1" stop-color="rgb(7.978821%, 51.306152%, 80.966187%)" offset="0.359375"/><stop stop-opacity="1" stop-color="rgb(8.01239%, 51.550293%, 81.034851%)" offset="0.363281"/><stop stop-opacity="1" stop-color="rgb(8.045959%, 51.795959%, 81.103516%)" offset="0.367188"/><stop stop-opacity="1" stop-color="rgb(8.079529%, 52.041626%, 81.17218%)" offset="0.371094"/><stop stop-opacity="1" stop-color="rgb(8.113098%, 52.287292%, 81.240845%)" offset="0.375"/><stop stop-opacity="1" stop-color="rgb(8.146667%, 52.532959%, 81.309509%)" offset="0.378906"/><stop stop-opacity="1" stop-color="rgb(8.181763%, 52.778625%, 81.378174%)" offset="0.382813"/><stop stop-opacity="1" stop-color="rgb(8.215332%, 53.022766%, 81.446838%)" offset="0.386719"/><stop stop-opacity="1" stop-color="rgb(8.248901%, 53.268433%, 81.515503%)" offset="0.390625"/><stop stop-opacity="1" stop-color="rgb(8.282471%, 53.514099%, 81.584167%)" offset="0.394531"/><stop stop-opacity="1" stop-color="rgb(8.31604%, 53.759766%, 81.652832%)" offset="0.398438"/><stop stop-opacity="1" stop-color="rgb(8.349609%, 54.005432%, 81.721497%)" offset="0.402344"/><stop stop-opacity="1" stop-color="rgb(8.383179%, 54.251099%, 81.791687%)" offset="0.40625"/><stop stop-opacity="1" stop-color="rgb(8.416748%, 54.495239%, 81.860352%)" offset="0.410156"/><stop stop-opacity="1" stop-color="rgb(8.451843%, 54.740906%, 81.929016%)" offset="0.414063"/><stop stop-opacity="1" stop-color="rgb(8.485413%, 54.986572%, 81.997681%)" offset="0.417969"/><stop stop-opacity="1" stop-color="rgb(8.518982%, 55.232239%, 82.066345%)" offset="0.421875"/><stop stop-opacity="1" stop-color="rgb(8.552551%, 55.477905%, 82.13501%)" offset="0.425781"/><stop stop-opacity="1" stop-color="rgb(8.586121%, 55.723572%, 82.203674%)" offset="0.429688"/><stop stop-opacity="1" stop-color="rgb(8.61969%, 55.967712%, 82.272339%)" offset="0.433594"/><stop stop-opacity="1" stop-color="rgb(8.653259%, 56.213379%, 82.341003%)" offset="0.4375"/><stop stop-opacity="1" stop-color="rgb(8.686829%, 56.459045%, 82.409668%)" offset="0.441406"/><stop stop-opacity="1" stop-color="rgb(8.720398%, 56.704712%, 82.478333%)" offset="0.445312"/><stop stop-opacity="1" stop-color="rgb(8.753967%, 56.950378%, 82.546997%)" offset="0.449219"/><stop stop-opacity="1" stop-color="rgb(8.789062%, 57.196045%, 82.617188%)" offset="0.453125"/><stop stop-opacity="1" stop-color="rgb(8.822632%, 57.440186%, 82.685852%)" offset="0.457031"/><stop stop-opacity="1" stop-color="rgb(8.856201%, 57.685852%, 82.754517%)" offset="0.460937"/><stop stop-opacity="1" stop-color="rgb(8.889771%, 57.931519%, 82.823181%)" offset="0.464844"/><stop stop-opacity="1" stop-color="rgb(8.92334%, 58.177185%, 82.891846%)" offset="0.46875"/><stop stop-opacity="1" stop-color="rgb(8.956909%, 58.422852%, 82.96051%)" offset="0.472656"/><stop stop-opacity="1" stop-color="rgb(8.990479%, 58.668518%, 83.029175%)" offset="0.476562"/><stop stop-opacity="1" stop-color="rgb(9.024048%, 58.912659%, 83.097839%)" offset="0.480469"/><stop stop-opacity="1" stop-color="rgb(9.059143%, 59.158325%, 83.166504%)" offset="0.484375"/><stop stop-opacity="1" stop-color="rgb(9.092712%, 59.403992%, 83.235168%)" offset="0.488281"/><stop stop-opacity="1" stop-color="rgb(9.126282%, 59.649658%, 83.303833%)" offset="0.492188"/><stop stop-opacity="1" stop-color="rgb(9.159851%, 59.895325%, 83.372498%)" offset="0.496094"/><stop stop-opacity="1" stop-color="rgb(9.19342%, 60.140991%, 83.442688%)" offset="0.5"/><stop stop-opacity="1" stop-color="rgb(9.22699%, 60.385132%, 83.511353%)" offset="0.503906"/><stop stop-opacity="1" stop-color="rgb(9.260559%, 60.630798%, 83.580017%)" offset="0.507813"/><stop stop-opacity="1" stop-color="rgb(9.294128%, 60.876465%, 83.648682%)" offset="0.511719"/><stop stop-opacity="1" stop-color="rgb(9.327698%, 61.122131%, 83.717346%)" offset="0.515625"/><stop stop-opacity="1" stop-color="rgb(9.361267%, 61.367798%, 83.786011%)" offset="0.519531"/><stop stop-opacity="1" stop-color="rgb(9.396362%, 61.613464%, 83.854675%)" offset="0.523438"/><stop stop-opacity="1" stop-color="rgb(9.429932%, 61.857605%, 83.92334%)" offset="0.527344"/><stop stop-opacity="1" stop-color="rgb(9.463501%, 62.103271%, 83.992004%)" offset="0.53125"/><stop stop-opacity="1" stop-color="rgb(9.49707%, 62.348938%, 84.060669%)" offset="0.535156"/><stop stop-opacity="1" stop-color="rgb(9.53064%, 62.594604%, 84.129333%)" offset="0.539063"/><stop stop-opacity="1" stop-color="rgb(9.564209%, 62.840271%, 84.197998%)" offset="0.542969"/><stop stop-opacity="1" stop-color="rgb(9.597778%, 63.085938%, 84.268188%)" offset="0.546875"/><stop stop-opacity="1" stop-color="rgb(9.631348%, 63.330078%, 84.336853%)" offset="0.550781"/><stop stop-opacity="1" stop-color="rgb(9.664917%, 63.575745%, 84.405518%)" offset="0.554688"/><stop stop-opacity="1" stop-color="rgb(9.698486%, 63.821411%, 84.474182%)" offset="0.558594"/><stop stop-opacity="1" stop-color="rgb(9.733582%, 64.067078%, 84.542847%)" offset="0.5625"/><stop stop-opacity="1" stop-color="rgb(9.767151%, 64.312744%, 84.611511%)" offset="0.566406"/><stop stop-opacity="1" stop-color="rgb(9.80072%, 64.558411%, 84.680176%)" offset="0.570312"/><stop stop-opacity="1" stop-color="rgb(9.83429%, 64.802551%, 84.74884%)" offset="0.574219"/><stop stop-opacity="1" stop-color="rgb(9.867859%, 65.048218%, 84.817505%)" offset="0.578125"/><stop stop-opacity="1" stop-color="rgb(9.901428%, 65.293884%, 84.886169%)" offset="0.582031"/><stop stop-opacity="1" stop-color="rgb(9.934998%, 65.539551%, 84.95636%)" offset="0.585938"/><stop stop-opacity="1" stop-color="rgb(9.968567%, 65.785217%, 85.025024%)" offset="0.589844"/><stop stop-opacity="1" stop-color="rgb(10.003662%, 66.030884%, 85.093689%)" offset="0.59375"/><stop stop-opacity="1" stop-color="rgb(10.037231%, 66.27655%, 85.162354%)" offset="0.597656"/><stop stop-opacity="1" stop-color="rgb(10.070801%, 66.522217%, 85.231018%)" offset="0.601563"/><stop stop-opacity="1" stop-color="rgb(10.10437%, 66.766357%, 85.299683%)" offset="0.605469"/><stop stop-opacity="1" stop-color="rgb(10.137939%, 67.012024%, 85.368347%)" offset="0.609375"/><stop stop-opacity="1" stop-color="rgb(10.171509%, 67.25769%, 85.437012%)" offset="0.613281"/><stop stop-opacity="1" stop-color="rgb(10.205078%, 67.503357%, 85.505676%)" offset="0.617188"/><stop stop-opacity="1" stop-color="rgb(10.238647%, 67.749023%, 85.574341%)" offset="0.621094"/><stop stop-opacity="1" stop-color="rgb(10.272217%, 67.99469%, 85.643005%)" offset="0.625"/><stop stop-opacity="1" stop-color="rgb(10.305786%, 68.238831%, 85.71167%)" offset="0.628906"/><stop stop-opacity="1" stop-color="rgb(10.340881%, 68.484497%, 85.78186%)" offset="0.632813"/><stop stop-opacity="1" stop-color="rgb(10.374451%, 68.730164%, 85.850525%)" offset="0.636719"/><stop stop-opacity="1" stop-color="rgb(10.40802%, 68.97583%, 85.919189%)" offset="0.640625"/><stop stop-opacity="1" stop-color="rgb(10.441589%, 69.221497%, 85.987854%)" offset="0.644531"/><stop stop-opacity="1" stop-color="rgb(10.475159%, 69.467163%, 86.056519%)" offset="0.648438"/><stop stop-opacity="1" stop-color="rgb(10.508728%, 69.711304%, 86.125183%)" offset="0.652344"/><stop stop-opacity="1" stop-color="rgb(10.542297%, 69.95697%, 86.193848%)" offset="0.65625"/><stop stop-opacity="1" stop-color="rgb(10.575867%, 70.202637%, 86.262512%)" offset="0.660156"/><stop stop-opacity="1" stop-color="rgb(10.610962%, 70.448303%, 86.331177%)" offset="0.664062"/><stop stop-opacity="1" stop-color="rgb(10.644531%, 70.69397%, 86.399841%)" offset="0.667969"/><stop stop-opacity="1" stop-color="rgb(10.678101%, 70.939636%, 86.468506%)" offset="0.671875"/><stop stop-opacity="1" stop-color="rgb(10.71167%, 71.183777%, 86.53717%)" offset="0.675781"/><stop stop-opacity="1" stop-color="rgb(10.745239%, 71.429443%, 86.607361%)" offset="0.679688"/><stop stop-opacity="1" stop-color="rgb(10.778809%, 71.67511%, 86.676025%)" offset="0.683594"/><stop stop-opacity="1" stop-color="rgb(10.812378%, 71.920776%, 86.74469%)" offset="0.6875"/><stop stop-opacity="1" stop-color="rgb(10.845947%, 72.166443%, 86.813354%)" offset="0.691406"/><stop stop-opacity="1" stop-color="rgb(10.879517%, 72.412109%, 86.882019%)" offset="0.695312"/><stop stop-opacity="1" stop-color="rgb(10.913086%, 72.65625%, 86.950684%)" offset="0.699219"/><stop stop-opacity="1" stop-color="rgb(10.948181%, 72.901917%, 87.019348%)" offset="0.703125"/><stop stop-opacity="1" stop-color="rgb(10.98175%, 73.147583%, 87.088013%)" offset="0.707031"/><stop stop-opacity="1" stop-color="rgb(11.01532%, 73.39325%, 87.156677%)" offset="0.710938"/><stop stop-opacity="1" stop-color="rgb(11.048889%, 73.638916%, 87.225342%)" offset="0.714844"/><stop stop-opacity="1" stop-color="rgb(11.082458%, 73.884583%, 87.294006%)" offset="0.71875"/><stop stop-opacity="1" stop-color="rgb(11.116028%, 74.128723%, 87.362671%)" offset="0.722656"/><stop stop-opacity="1" stop-color="rgb(11.149597%, 74.37439%, 87.432861%)" offset="0.726563"/><stop stop-opacity="1" stop-color="rgb(11.183167%, 74.620056%, 87.501526%)" offset="0.730469"/><stop stop-opacity="1" stop-color="rgb(11.218262%, 74.865723%, 87.57019%)" offset="0.734375"/><stop stop-opacity="1" stop-color="rgb(11.251831%, 75.111389%, 87.638855%)" offset="0.738281"/><stop stop-opacity="1" stop-color="rgb(11.2854%, 75.357056%, 87.70752%)" offset="0.742188"/><stop stop-opacity="1" stop-color="rgb(11.31897%, 75.601196%, 87.776184%)" offset="0.746094"/><stop stop-opacity="1" stop-color="rgb(11.352539%, 75.846863%, 87.844849%)" offset="0.75"/><stop stop-opacity="1" stop-color="rgb(11.386108%, 76.092529%, 87.913513%)" offset="0.753906"/><stop stop-opacity="1" stop-color="rgb(11.419678%, 76.338196%, 87.982178%)" offset="0.757812"/><stop stop-opacity="1" stop-color="rgb(11.453247%, 76.583862%, 88.050842%)" offset="0.761719"/><stop stop-opacity="1" stop-color="rgb(11.486816%, 76.829529%, 88.119507%)" offset="0.765625"/><stop stop-opacity="1" stop-color="rgb(11.520386%, 77.073669%, 88.188171%)" offset="0.769531"/><stop stop-opacity="1" stop-color="rgb(11.555481%, 77.319336%, 88.258362%)" offset="0.773438"/><stop stop-opacity="1" stop-color="rgb(11.58905%, 77.565002%, 88.327026%)" offset="0.777344"/><stop stop-opacity="1" stop-color="rgb(11.62262%, 77.810669%, 88.395691%)" offset="0.78125"/><stop stop-opacity="1" stop-color="rgb(11.656189%, 78.056335%, 88.464355%)" offset="0.785156"/><stop stop-opacity="1" stop-color="rgb(11.689758%, 78.302002%, 88.53302%)" offset="0.789062"/><stop stop-opacity="1" stop-color="rgb(11.723328%, 78.546143%, 88.601685%)" offset="0.792969"/><stop stop-opacity="1" stop-color="rgb(11.756897%, 78.791809%, 88.670349%)" offset="0.796875"/><stop stop-opacity="1" stop-color="rgb(11.790466%, 79.037476%, 88.739014%)" offset="0.800781"/><stop stop-opacity="1" stop-color="rgb(11.824036%, 79.283142%, 88.807678%)" offset="0.804688"/><stop stop-opacity="1" stop-color="rgb(11.857605%, 79.528809%, 88.876343%)" offset="0.808594"/><stop stop-opacity="1" stop-color="rgb(11.8927%, 79.774475%, 88.946533%)" offset="0.8125"/><stop stop-opacity="1" stop-color="rgb(11.92627%, 80.018616%, 89.015198%)" offset="0.816406"/><stop stop-opacity="1" stop-color="rgb(11.959839%, 80.264282%, 89.083862%)" offset="0.820313"/><stop stop-opacity="1" stop-color="rgb(11.993408%, 80.509949%, 89.152527%)" offset="0.824219"/><stop stop-opacity="1" stop-color="rgb(12.026978%, 80.755615%, 89.221191%)" offset="0.828125"/><stop stop-opacity="1" stop-color="rgb(12.060547%, 81.001282%, 89.289856%)" offset="0.832031"/><stop stop-opacity="1" stop-color="rgb(12.094116%, 81.246948%, 89.358521%)" offset="0.835938"/><stop stop-opacity="1" stop-color="rgb(12.127686%, 81.491089%, 89.427185%)" offset="0.839844"/><stop stop-opacity="1" stop-color="rgb(12.162781%, 81.736755%, 89.49585%)" offset="0.84375"/><stop stop-opacity="1" stop-color="rgb(12.19635%, 81.982422%, 89.564514%)" offset="0.847656"/><stop stop-opacity="1" stop-color="rgb(12.229919%, 82.228088%, 89.633179%)" offset="0.851562"/><stop stop-opacity="1" stop-color="rgb(12.263489%, 82.473755%, 89.701843%)" offset="0.855469"/><stop stop-opacity="1" stop-color="rgb(12.297058%, 82.719421%, 89.772034%)" offset="0.859375"/><stop stop-opacity="1" stop-color="rgb(12.330627%, 82.963562%, 89.840698%)" offset="0.863281"/><stop stop-opacity="1" stop-color="rgb(12.364197%, 83.209229%, 89.909363%)" offset="0.867187"/><stop stop-opacity="1" stop-color="rgb(12.397766%, 83.454895%, 89.978027%)" offset="0.871094"/><stop stop-opacity="1" stop-color="rgb(12.431335%, 83.700562%, 90.046692%)" offset="0.875"/><stop stop-opacity="1" stop-color="rgb(12.464905%, 83.946228%, 90.115356%)" offset="0.878906"/><stop stop-opacity="1" stop-color="rgb(12.5%, 84.191895%, 90.184021%)" offset="0.882812"/><stop stop-opacity="1" stop-color="rgb(12.533569%, 84.436035%, 90.252686%)" offset="0.886719"/><stop stop-opacity="1" stop-color="rgb(12.567139%, 84.681702%, 90.32135%)" offset="0.890625"/><stop stop-opacity="1" stop-color="rgb(12.600708%, 84.927368%, 90.390015%)" offset="0.894531"/><stop stop-opacity="1" stop-color="rgb(12.634277%, 85.173035%, 90.458679%)" offset="0.898438"/><stop stop-opacity="1" stop-color="rgb(12.667847%, 85.418701%, 90.527344%)" offset="0.902344"/><stop stop-opacity="1" stop-color="rgb(12.701416%, 85.664368%, 90.597534%)" offset="0.90625"/><stop stop-opacity="1" stop-color="rgb(12.734985%, 85.908508%, 90.666199%)" offset="0.910156"/><stop stop-opacity="1" stop-color="rgb(12.770081%, 86.154175%, 90.734863%)" offset="0.914062"/><stop stop-opacity="1" stop-color="rgb(12.80365%, 86.399841%, 90.803528%)" offset="0.917969"/><stop stop-opacity="1" stop-color="rgb(12.837219%, 86.645508%, 90.872192%)" offset="0.921875"/><stop stop-opacity="1" stop-color="rgb(12.867737%, 86.871338%, 90.934753%)" offset="0.925781"/><stop stop-opacity="1" stop-color="rgb(12.89978%, 87.098694%, 90.99884%)" offset="0.929688"/><stop stop-opacity="1" stop-color="rgb(12.89978%, 87.098694%, 90.99884%)" offset="0.9375"/><stop stop-opacity="1" stop-color="rgb(12.89978%, 87.098694%, 90.99884%)" offset="1"/></linearGradient></defs><g clip-path="url(#15c0a0cad9)"><g clip-path="url(#8282838ba8)"><path fill="url(#493ef5d1af)" d="M 4.6875 2.539062 L 4.6875 34.34375 L 36.492188 34.34375 L 36.492188 2.539062 Z M 4.6875 2.539062 " fill-rule="nonzero"/></g></g><g fill="#c17bff" fill-opacity="1"><g transform="translate(46.088114, 24.676226)"><g><path d="M 3.976562 -1.074219 C 3.976562 -0.882812 3.929688 -0.707031 3.832031 -0.546875 C 3.738281 -0.382812 3.609375 -0.25 3.445312 -0.152344 C 3.285156 -0.0507812 3.101562 0 2.902344 0 L 1.289062 0 C 1.097656 0 0.917969 -0.046875 0.757812 -0.140625 C 0.597656 -0.238281 0.46875 -0.367188 0.371094 -0.527344 C 0.273438 -0.691406 0.222656 -0.875 0.214844 -1.074219 L 0.753906 -1.074219 C 0.753906 -0.925781 0.804688 -0.800781 0.910156 -0.695312 C 1.015625 -0.589844 1.140625 -0.539062 1.289062 -0.539062 L 2.902344 -0.539062 C 3.046875 -0.539062 3.175781 -0.589844 3.28125 -0.695312 C 3.386719 -0.800781 3.4375 -0.925781 3.4375 -1.074219 C 3.4375 -1.222656 3.386719 -1.347656 3.28125 -1.453125 C 3.175781 -1.558594 3.046875 -1.613281 2.902344 -1.613281 L 1.289062 -1.613281 C 1.097656 -1.613281 0.921875 -1.660156 0.757812 -1.753906 C 0.59375 -1.847656 0.460938 -1.976562 0.363281 -2.140625 C 0.265625 -2.304688 0.214844 -2.484375 0.214844 -2.6875 C 0.214844 -2.875 0.261719 -3.050781 0.355469 -3.214844 C 0.453125 -3.378906 0.582031 -3.511719 0.742188 -3.609375 C 0.90625 -3.710938 1.089844 -3.761719 1.289062 -3.761719 L 2.902344 -3.761719 C 3.09375 -3.761719 3.269531 -3.710938 3.429688 -3.617188 C 3.589844 -3.519531 3.71875 -3.390625 3.820312 -3.230469 C 3.921875 -3.066406 3.972656 -2.886719 3.976562 -2.6875 L 3.4375 -2.6875 C 3.4375 -2.832031 3.386719 -2.960938 3.28125 -3.066406 C 3.175781 -3.171875 3.046875 -3.222656 2.902344 -3.222656 L 1.289062 -3.222656 C 1.140625 -3.222656 1.015625 -3.171875 0.910156 -3.066406 C 0.804688 -2.960938 0.753906 -2.832031 0.753906 -2.6875 C 0.753906 -2.539062 0.804688 -2.414062 0.910156 -2.308594 C 1.015625 -2.203125 1.140625 -2.148438 1.289062 -2.148438 L 2.902344 -2.148438 C 3.089844 -2.148438 3.265625 -2.101562 3.429688 -2.003906 C 3.59375 -1.90625 3.726562 -1.777344 3.824219 -1.617188 C 3.925781 -1.457031 3.976562 -1.273438 3.976562 -1.074219 Z M 3.976562 -1.074219 "/></g></g></g><g fill="#c17bff" fill-opacity="1"><g transform="translate(51.820645, 24.676226)"><g><path d="M 3.4375 -1.074219 L 3.4375 -2.6875 C 3.4375 -2.832031 3.386719 -2.960938 3.28125 -3.066406 C 3.175781 -3.171875 3.046875 -3.222656 2.902344 -3.222656 L 1.289062 -3.222656 C 1.140625 -3.222656 1.015625 -3.171875 0.910156 -3.066406 C 0.804688 -2.960938 0.753906 -2.832031 0.753906 -2.6875 L 0.753906 -1.074219 C 0.753906 -0.925781 0.804688 -0.800781 0.910156 -0.695312 C 1.015625 -0.589844 1.140625 -0.539062 1.289062 -0.539062 L 2.902344 -0.539062 C 3.046875 -0.539062 3.175781 -0.589844 3.28125 -0.695312 C 3.386719 -0.800781 3.4375 -0.925781 3.4375 -1.074219 Z M 3.976562 -2.6875 L 3.976562 -1.074219 C 3.976562 -0.878906 3.925781 -0.699219 3.832031 -0.535156 C 3.734375 -0.371094 3.605469 -0.242188 3.441406 -0.144531 C 3.277344 -0.046875 3.097656 0 2.902344 0 L 1.289062 0 C 1.09375 0 0.914062 -0.046875 0.75 -0.144531 C 0.585938 -0.242188 0.457031 -0.371094 0.359375 -0.535156 C 0.261719 -0.699219 0.214844 -0.878906 0.214844 -1.074219 L 0.214844 -2.6875 C 0.214844 -2.882812 0.261719 -3.0625 0.359375 -3.226562 C 0.457031 -3.390625 0.585938 -3.519531 0.75 -3.617188 C 0.914062 -3.710938 1.09375 -3.761719 1.289062 -3.761719 L 2.902344 -3.761719 C 3.089844 -3.761719 3.265625 -3.710938 3.429688 -3.613281 C 3.59375 -3.515625 3.726562 -3.382812 3.824219 -3.222656 C 3.925781 -3.0625 3.976562 -2.882812 3.976562 -2.6875 Z M 3.976562 -2.6875 "/></g></g></g><g fill="#c17bff" fill-opacity="1"><g transform="translate(57.553177, 24.676226)"><g><path d="M 0.804688 -3.222656 L 0.804688 -2.148438 L 3.492188 -2.148438 L 3.492188 -1.613281 L 0.804688 -1.613281 L 0.804688 0 L 0.269531 0 L 0.269531 -3.761719 L 4.03125 -3.761719 L 4.03125 -3.222656 Z M 0.804688 -3.222656 "/></g></g></g><g fill="#c17bff" fill-opacity="1"><g transform="translate(63.231985, 24.676226)"><g><path d="M 3.761719 -3.222656 L 2.148438 -3.222656 L 2.148438 0 L 1.613281 0 L 1.613281 -3.222656 L 0 -3.222656 L 0 -3.761719 L 3.761719 -3.761719 Z M 3.761719 -3.222656 "/></g></g></g><g fill="#c17bff" fill-opacity="1"><g transform="translate(68.53471, 24.676226)"><g><path d="M 3.492188 -0.539062 L 4.03125 -0.539062 C 4.175781 -0.539062 4.300781 -0.589844 4.40625 -0.695312 C 4.515625 -0.800781 4.566406 -0.925781 4.566406 -1.074219 L 4.566406 -3.761719 L 5.105469 -3.761719 L 5.105469 -1.074219 C 5.105469 -0.882812 5.054688 -0.707031 4.960938 -0.546875 C 4.867188 -0.382812 4.738281 -0.25 4.574219 -0.152344 C 4.410156 -0.0507812 4.230469 0 4.03125 0 L 3.492188 0 C 3.167969 0 2.902344 -0.121094 2.6875 -0.367188 C 2.472656 -0.121094 2.203125 0 1.878906 0 L 1.34375 0 C 1.152344 0 0.976562 -0.046875 0.8125 -0.140625 C 0.648438 -0.238281 0.515625 -0.367188 0.417969 -0.527344 C 0.316406 -0.691406 0.269531 -0.875 0.269531 -1.074219 L 0.269531 -3.761719 L 0.804688 -3.761719 L 0.804688 -1.074219 C 0.804688 -0.925781 0.859375 -0.800781 0.964844 -0.695312 C 1.070312 -0.589844 1.195312 -0.539062 1.34375 -0.539062 L 1.878906 -0.539062 C 2.027344 -0.539062 2.152344 -0.589844 2.257812 -0.695312 C 2.363281 -0.800781 2.417969 -0.925781 2.417969 -1.074219 L 2.417969 -3.761719 L 2.953125 -3.761719 L 2.953125 -1.074219 C 2.953125 -0.925781 3.007812 -0.800781 3.113281 -0.695312 C 3.21875 -0.589844 3.34375 -0.539062 3.492188 -0.539062 Z M 3.492188 -0.539062 "/></g></g></g><g fill="#c17bff" fill-opacity="1"><g transform="translate(75.449214, 24.676226)"><g><path d="M 2.953125 -3.222656 L 1.34375 -3.222656 C 1.195312 -3.222656 1.070312 -3.171875 0.964844 -3.066406 C 0.859375 -2.960938 0.804688 -2.832031 0.804688 -2.6875 L 0.804688 -1.613281 L 3.492188 -1.613281 L 3.492188 -2.6875 C 3.492188 -2.832031 3.4375 -2.960938 3.332031 -3.066406 C 3.226562 -3.171875 3.101562 -3.222656 2.953125 -3.222656 Z M 4.03125 -2.6875 L 4.03125 0 L 3.492188 0 L 3.492188 -1.074219 L 0.804688 -1.074219 L 0.804688 0 L 0.269531 0 L 0.269531 -2.6875 C 0.269531 -2.875 0.316406 -3.050781 0.410156 -3.214844 C 0.507812 -3.378906 0.636719 -3.511719 0.796875 -3.609375 C 0.960938 -3.710938 1.140625 -3.761719 1.34375 -3.761719 L 2.953125 -3.761719 C 3.148438 -3.761719 3.324219 -3.710938 3.484375 -3.617188 C 3.644531 -3.519531 3.773438 -3.390625 3.875 -3.230469 C 3.972656 -3.066406 4.027344 -2.886719 4.03125 -2.6875 Z M 4.03125 -2.6875 "/></g></g></g><g fill="#c17bff" fill-opacity="1"><g transform="translate(81.289199, 24.676226)"><g><path d="M 3.492188 -2.148438 L 3.492188 -2.6875 C 3.492188 -2.832031 3.4375 -2.960938 3.332031 -3.066406 C 3.226562 -3.171875 3.101562 -3.222656 2.953125 -3.222656 L 0.804688 -3.222656 L 0.804688 -1.613281 L 2.953125 -1.613281 C 3.101562 -1.613281 3.226562 -1.664062 3.332031 -1.769531 C 3.4375 -1.875 3.492188 -2.003906 3.492188 -2.148438 Z M 4.03125 0 L 3.648438 0 L 2.574219 -1.074219 L 0.804688 -1.074219 L 0.804688 0 L 0.269531 0 L 0.269531 -3.761719 L 2.953125 -3.761719 C 3.144531 -3.761719 3.320312 -3.710938 3.484375 -3.617188 C 3.648438 -3.519531 3.777344 -3.390625 3.878906 -3.230469 C 3.980469 -3.066406 4.03125 -2.886719 4.03125 -2.6875 L 4.03125 -2.148438 C 4.03125 -1.917969 3.960938 -1.710938 3.824219 -1.523438 C 3.683594 -1.335938 3.503906 -1.203125 3.28125 -1.128906 L 4.03125 -0.382812 Z M 4.03125 0 "/></g></g></g><g fill="#c17bff" fill-opacity="1"><g transform="translate(87.075461, 24.676226)"><g><path d="M 0.804688 -3.222656 L 0.804688 -2.148438 L 3.492188 -2.148438 L 3.492188 -1.613281 L 0.804688 -1.613281 L 0.804688 -0.539062 L 4.03125 -0.539062 L 4.03125 0 L 0.269531 0 L 0.269531 -3.761719 L 4.03125 -3.761719 L 4.03125 -3.222656 Z M 0.804688 -3.222656 "/></g></g></g><g fill="#c17bff" fill-opacity="1"><g transform="translate(92.807992, 24.676226)"><g/></g></g><g fill="#c17bff" fill-opacity="1"><g transform="translate(96.498945, 24.676226)"><g><path d="M 0.804688 -3.222656 L 0.804688 -2.148438 L 3.492188 -2.148438 L 3.492188 -1.613281 L 0.804688 -1.613281 L 0.804688 -0.539062 L 4.03125 -0.539062 L 4.03125 0 L 0.269531 0 L 0.269531 -3.761719 L 4.03125 -3.761719 L 4.03125 -3.222656 Z M 0.804688 -3.222656 "/></g></g></g><g fill="#c17bff" fill-opacity="1"><g transform="translate(102.231476, 24.676226)"><g><path d="M 4.03125 -3.761719 L 4.03125 0 L 3.492188 0 L 0.804688 -2.890625 L 0.804688 0 L 0.269531 0 L 0.269531 -3.761719 L 0.804688 -3.761719 L 3.492188 -0.914062 L 3.492188 -3.761719 Z M 4.03125 -3.761719 "/></g></g></g><g fill="#c17bff" fill-opacity="1"><g transform="translate(108.071461, 24.676226)"><g><path d="M 1.828125 -1.613281 L 1.828125 -2.148438 L 3.976562 -2.148438 L 3.976562 -1.074219 C 3.976562 -0.882812 3.929688 -0.707031 3.832031 -0.546875 C 3.738281 -0.382812 3.609375 -0.25 3.445312 -0.152344 C 3.285156 -0.0507812 3.101562 0 2.902344 0 L 1.289062 0 C 1.097656 0 0.921875 -0.046875 0.757812 -0.140625 C 0.59375 -0.238281 0.460938 -0.367188 0.363281 -0.527344 C 0.265625 -0.691406 0.214844 -0.875 0.214844 -1.074219 L 0.214844 -2.6875 C 0.214844 -2.875 0.261719 -3.050781 0.355469 -3.214844 C 0.453125 -3.378906 0.582031 -3.511719 0.742188 -3.609375 C 0.90625 -3.710938 1.089844 -3.761719 1.289062 -3.761719 L 2.902344 -3.761719 C 3.09375 -3.761719 3.269531 -3.710938 3.429688 -3.617188 C 3.589844 -3.519531 3.71875 -3.390625 3.820312 -3.230469 C 3.921875 -3.066406 3.972656 -2.886719 3.976562 -2.6875 L 3.4375 -2.6875 C 3.4375 -2.832031 3.386719 -2.960938 3.28125 -3.066406 C 3.175781 -3.171875 3.046875 -3.222656 2.902344 -3.222656 L 1.289062 -3.222656 C 1.140625 -3.222656 1.015625 -3.171875 0.910156 -3.066406 C 0.804688 -2.960938 0.753906 -2.832031 0.753906 -2.6875 L 0.753906 -1.074219 C 0.753906 -0.925781 0.804688 -0.800781 0.910156 -0.695312 C 1.015625 -0.589844 1.140625 -0.539062 1.289062 -0.539062 L 2.902344 -0.539062 C 3.046875 -0.539062 3.175781 -0.589844 3.28125 -0.695312 C 3.386719 -0.800781 3.4375 -0.925781 3.4375 -1.074219 L 3.4375 -1.613281 Z M 1.828125 -1.613281 "/></g></g></g><g fill="#c17bff" fill-opacity="1"><g transform="translate(113.803992, 24.676226)"><g><path d="M 0.269531 -3.761719 L 0.804688 -3.761719 L 0.804688 0 L 0.269531 0 Z M 0.269531 -3.761719 "/></g></g></g><g fill="#c17bff" fill-opacity="1"><g transform="translate(116.420432, 24.676226)"><g><path d="M 4.03125 -3.761719 L 4.03125 0 L 3.492188 0 L 0.804688 -2.890625 L 0.804688 0 L 0.269531 0 L 0.269531 -3.761719 L 0.804688 -3.761719 L 3.492188 -0.914062 L 3.492188 -3.761719 Z M 4.03125 -3.761719 "/></g></g></g><g fill="#c17bff" fill-opacity="1"><g transform="translate(122.260417, 24.676226)"><g><path d="M 0.804688 -3.222656 L 0.804688 -2.148438 L 3.492188 -2.148438 L 3.492188 -1.613281 L 0.804688 -1.613281 L 0.804688 -0.539062 L 4.03125 -0.539062 L 4.03125 0 L 0.269531 0 L 0.269531 -3.761719 L 4.03125 -3.761719 L 4.03125 -3.222656 Z M 0.804688 -3.222656 "/></g></g></g><g fill="#c17bff" fill-opacity="1"><g transform="translate(127.992948, 24.676226)"><g><path d="M 0.804688 -3.222656 L 0.804688 -2.148438 L 3.492188 -2.148438 L 3.492188 -1.613281 L 0.804688 -1.613281 L 0.804688 -0.539062 L 4.03125 -0.539062 L 4.03125 0 L 0.269531 0 L 0.269531 -3.761719 L 4.03125 -3.761719 L 4.03125 -3.222656 Z M 0.804688 -3.222656 "/></g></g></g><g fill="#c17bff" fill-opacity="1"><g transform="translate(133.72548, 24.676226)"><g><path d="M 3.492188 -2.148438 L 3.492188 -2.6875 C 3.492188 -2.832031 3.4375 -2.960938 3.332031 -3.066406 C 3.226562 -3.171875 3.101562 -3.222656 2.953125 -3.222656 L 0.804688 -3.222656 L 0.804688 -1.613281 L 2.953125 -1.613281 C 3.101562 -1.613281 3.226562 -1.664062 3.332031 -1.769531 C 3.4375 -1.875 3.492188 -2.003906 3.492188 -2.148438 Z M 4.03125 0 L 3.648438 0 L 2.574219 -1.074219 L 0.804688 -1.074219 L 0.804688 0 L 0.269531 0 L 0.269531 -3.761719 L 2.953125 -3.761719 C 3.144531 -3.761719 3.320312 -3.710938 3.484375 -3.617188 C 3.648438 -3.519531 3.777344 -3.390625 3.878906 -3.230469 C 3.980469 -3.066406 4.03125 -2.886719 4.03125 -2.6875 L 4.03125 -2.148438 C 4.03125 -1.917969 3.960938 -1.710938 3.824219 -1.523438 C 3.683594 -1.335938 3.503906 -1.203125 3.28125 -1.128906 L 4.03125 -0.382812 Z M 4.03125 0 "/></g></g></g><g fill="#ffffff" fill-opacity="1"><g transform="translate(39.895767, 16.864718)"><g><path d="M 6.453125 -8.734375 L 6.453125 -7.03125 L 2.890625 -7.03125 L 2.890625 -5.1875 L 5.5625 -5.1875 L 5.5625 -3.53125 L 2.890625 -3.53125 L 2.890625 0 L 0.765625 0 L 0.765625 -8.734375 Z M 6.453125 -8.734375 "/></g></g></g><g fill="#ffffff" fill-opacity="1"><g transform="translate(46.700333, 16.864718)"><g><path d="M 2.859375 -8.734375 L 2.859375 -3.5 C 2.859375 -2.976562 2.984375 -2.578125 3.234375 -2.296875 C 3.492188 -2.015625 3.875 -1.875 4.375 -1.875 C 4.875 -1.875 5.253906 -2.015625 5.515625 -2.296875 C 5.785156 -2.578125 5.921875 -2.976562 5.921875 -3.5 L 5.921875 -8.734375 L 8.046875 -8.734375 L 8.046875 -3.515625 C 8.046875 -2.734375 7.878906 -2.070312 7.546875 -1.53125 C 7.210938 -1 6.765625 -0.59375 6.203125 -0.3125 C 5.648438 -0.0390625 5.03125 0.09375 4.34375 0.09375 C 3.65625 0.09375 3.035156 -0.0390625 2.484375 -0.3125 C 1.941406 -0.582031 1.515625 -0.988281 1.203125 -1.53125 C 0.890625 -2.070312 0.734375 -2.734375 0.734375 -3.515625 L 0.734375 -8.734375 Z M 2.859375 -8.734375 "/></g></g></g><g fill="#ffffff" fill-opacity="1"><g transform="translate(55.470383, 16.864718)"><g><path d="M 2.890625 -1.640625 L 5.6875 -1.640625 L 5.6875 0 L 0.765625 0 L 0.765625 -8.734375 L 2.890625 -8.734375 Z M 2.890625 -1.640625 "/></g></g></g><g fill="#ffffff" fill-opacity="1"><g transform="translate(61.404158, 16.864718)"><g><path d="M 2.890625 -1.640625 L 5.6875 -1.640625 L 5.6875 0 L 0.765625 0 L 0.765625 -8.734375 L 2.890625 -8.734375 Z M 2.890625 -1.640625 "/></g></g></g><g fill="#ffffff" fill-opacity="1"><g transform="translate(67.337932, 16.864718)"><g/></g></g><g fill="#ffffff" fill-opacity="1"><g transform="translate(69.975166, 16.864718)"><g><path d="M 3.9375 0.09375 C 3.289062 0.09375 2.710938 -0.0078125 2.203125 -0.21875 C 1.703125 -0.425781 1.300781 -0.734375 1 -1.140625 C 0.695312 -1.546875 0.535156 -2.035156 0.515625 -2.609375 L 2.78125 -2.609375 C 2.8125 -2.285156 2.921875 -2.035156 3.109375 -1.859375 C 3.304688 -1.691406 3.5625 -1.609375 3.875 -1.609375 C 4.1875 -1.609375 4.429688 -1.679688 4.609375 -1.828125 C 4.796875 -1.972656 4.890625 -2.175781 4.890625 -2.4375 C 4.890625 -2.65625 4.816406 -2.832031 4.671875 -2.96875 C 4.523438 -3.113281 4.34375 -3.226562 4.125 -3.3125 C 3.914062 -3.40625 3.617188 -3.507812 3.234375 -3.625 C 2.671875 -3.800781 2.207031 -3.976562 1.84375 -4.15625 C 1.488281 -4.332031 1.179688 -4.585938 0.921875 -4.921875 C 0.671875 -5.265625 0.546875 -5.707031 0.546875 -6.25 C 0.546875 -7.0625 0.835938 -7.695312 1.421875 -8.15625 C 2.015625 -8.625 2.785156 -8.859375 3.734375 -8.859375 C 4.691406 -8.859375 5.460938 -8.625 6.046875 -8.15625 C 6.640625 -7.695312 6.957031 -7.0625 7 -6.25 L 4.703125 -6.25 C 4.679688 -6.53125 4.578125 -6.75 4.390625 -6.90625 C 4.203125 -7.070312 3.957031 -7.15625 3.65625 -7.15625 C 3.394531 -7.15625 3.1875 -7.082031 3.03125 -6.9375 C 2.875 -6.800781 2.796875 -6.609375 2.796875 -6.359375 C 2.796875 -6.078125 2.925781 -5.851562 3.1875 -5.6875 C 3.457031 -5.53125 3.875 -5.363281 4.4375 -5.1875 C 5 -5 5.457031 -4.816406 5.8125 -4.640625 C 6.164062 -4.460938 6.46875 -4.207031 6.71875 -3.875 C 6.976562 -3.550781 7.109375 -3.125 7.109375 -2.59375 C 7.109375 -2.101562 6.984375 -1.65625 6.734375 -1.25 C 6.484375 -0.84375 6.113281 -0.515625 5.625 -0.265625 C 5.144531 -0.0234375 4.582031 0.09375 3.9375 0.09375 Z M 3.9375 0.09375 "/></g></g></g><g fill="#ffffff" fill-opacity="1"><g transform="translate(77.62563, 16.864718)"><g><path d="M 7.046875 -8.734375 L 7.046875 -7.03125 L 4.734375 -7.03125 L 4.734375 0 L 2.609375 0 L 2.609375 -7.03125 L 0.296875 -7.03125 L 0.296875 -8.734375 Z M 7.046875 -8.734375 "/></g></g></g><g fill="#ffffff" fill-opacity="1"><g transform="translate(84.977547, 16.864718)"><g><path d="M 6.203125 -1.546875 L 2.953125 -1.546875 L 2.421875 0 L 0.203125 0 L 3.359375 -8.734375 L 5.828125 -8.734375 L 8.984375 0 L 6.734375 0 Z M 5.65625 -3.1875 L 4.578125 -6.375 L 3.5 -3.1875 Z M 5.65625 -3.1875 "/></g></g></g><g fill="#ffffff" fill-opacity="1"><g transform="translate(94.145667, 16.864718)"><g><path d="M 0.40625 -4.375 C 0.40625 -5.238281 0.59375 -6.007812 0.96875 -6.6875 C 1.34375 -7.363281 1.863281 -7.890625 2.53125 -8.265625 C 3.195312 -8.640625 3.953125 -8.828125 4.796875 -8.828125 C 5.835938 -8.828125 6.722656 -8.550781 7.453125 -8 C 8.191406 -7.457031 8.6875 -6.710938 8.9375 -5.765625 L 6.609375 -5.765625 C 6.429688 -6.128906 6.179688 -6.40625 5.859375 -6.59375 C 5.546875 -6.789062 5.1875 -6.890625 4.78125 -6.890625 C 4.125 -6.890625 3.59375 -6.660156 3.1875 -6.203125 C 2.78125 -5.742188 2.578125 -5.132812 2.578125 -4.375 C 2.578125 -3.613281 2.78125 -3.003906 3.1875 -2.546875 C 3.59375 -2.085938 4.125 -1.859375 4.78125 -1.859375 C 5.1875 -1.859375 5.546875 -1.953125 5.859375 -2.140625 C 6.179688 -2.335938 6.429688 -2.617188 6.609375 -2.984375 L 8.9375 -2.984375 C 8.6875 -2.035156 8.191406 -1.289062 7.453125 -0.75 C 6.722656 -0.207031 5.835938 0.0625 4.796875 0.0625 C 3.953125 0.0625 3.195312 -0.125 2.53125 -0.5 C 1.863281 -0.875 1.34375 -1.394531 0.96875 -2.0625 C 0.59375 -2.738281 0.40625 -3.507812 0.40625 -4.375 Z M 0.40625 -4.375 "/></g></g></g><g fill="#ffffff" fill-opacity="1"><g transform="translate(103.624784, 16.864718)"><g><path d="M 5.828125 0 L 2.890625 -3.859375 L 2.890625 0 L 0.765625 0 L 0.765625 -8.734375 L 2.890625 -8.734375 L 2.890625 -4.90625 L 5.8125 -8.734375 L 8.3125 -8.734375 L 4.921875 -4.453125 L 8.4375 0 Z M 5.828125 0 "/></g></g></g><g fill="#ffffff" fill-opacity="1"><g transform="translate(112.295314, 16.864718)"><g/></g></g><g fill="#ffffff" fill-opacity="1"><g transform="translate(114.932548, 16.864718)"><g><path d="M 4.046875 -8.734375 C 4.960938 -8.734375 5.765625 -8.550781 6.453125 -8.1875 C 7.140625 -7.820312 7.671875 -7.304688 8.046875 -6.640625 C 8.429688 -5.984375 8.625 -5.222656 8.625 -4.359375 C 8.625 -3.503906 8.429688 -2.742188 8.046875 -2.078125 C 7.671875 -1.421875 7.132812 -0.910156 6.4375 -0.546875 C 5.75 -0.179688 4.953125 0 4.046875 0 L 0.765625 0 L 0.765625 -8.734375 Z M 3.90625 -1.84375 C 4.707031 -1.84375 5.332031 -2.0625 5.78125 -2.5 C 6.226562 -2.9375 6.453125 -3.554688 6.453125 -4.359375 C 6.453125 -5.171875 6.226562 -5.800781 5.78125 -6.25 C 5.332031 -6.695312 4.707031 -6.921875 3.90625 -6.921875 L 2.890625 -6.921875 L 2.890625 -1.84375 Z M 3.90625 -1.84375 "/></g></g></g><g fill="#ffffff" fill-opacity="1"><g transform="translate(123.97627, 16.864718)"><g><path d="M 4.90625 0.09375 C 4.082031 0.09375 3.328125 -0.0976562 2.640625 -0.484375 C 1.953125 -0.867188 1.40625 -1.398438 1 -2.078125 C 0.601562 -2.765625 0.40625 -3.535156 0.40625 -4.390625 C 0.40625 -5.242188 0.601562 -6.007812 1 -6.6875 C 1.40625 -7.375 1.953125 -7.90625 2.640625 -8.28125 C 3.328125 -8.664062 4.082031 -8.859375 4.90625 -8.859375 C 5.71875 -8.859375 6.46875 -8.664062 7.15625 -8.28125 C 7.84375 -7.90625 8.378906 -7.375 8.765625 -6.6875 C 9.160156 -6.007812 9.359375 -5.242188 9.359375 -4.390625 C 9.359375 -3.535156 9.160156 -2.765625 8.765625 -2.078125 C 8.367188 -1.398438 7.828125 -0.867188 7.140625 -0.484375 C 6.460938 -0.0976562 5.71875 0.09375 4.90625 0.09375 Z M 4.90625 -1.859375 C 5.59375 -1.859375 6.144531 -2.085938 6.5625 -2.546875 C 6.988281 -3.015625 7.203125 -3.628906 7.203125 -4.390625 C 7.203125 -5.160156 6.988281 -5.773438 6.5625 -6.234375 C 6.144531 -6.691406 5.59375 -6.921875 4.90625 -6.921875 C 4.195312 -6.921875 3.632812 -6.691406 3.21875 -6.234375 C 2.800781 -5.785156 2.59375 -5.171875 2.59375 -4.390625 C 2.59375 -3.617188 2.800781 -3.003906 3.21875 -2.546875 C 3.632812 -2.085938 4.195312 -1.859375 4.90625 -1.859375 Z M 4.90625 -1.859375 "/></g></g></g><g fill="#ffffff" fill-opacity="1"><g transform="translate(133.753944, 16.864718)"><g><path d="M 10.65625 -8.734375 L 10.65625 0 L 8.53125 0 L 8.53125 -5.234375 L 6.578125 0 L 4.859375 0 L 2.890625 -5.25 L 2.890625 0 L 0.765625 0 L 0.765625 -8.734375 L 3.28125 -8.734375 L 5.734375 -2.6875 L 8.15625 -8.734375 Z M 10.65625 -8.734375 "/></g></g></g></svg>